<svg xmlns="http://www.w3.org/2000/svg" width="36" height="36" viewBox="0 0 36 36"><defs><mask id="mvl1b" width="2" height="2" x="-1" y="-1"><path fill="#fff" d="M3 3h30v30H3z"/><path d="M18 3c8.284 0 15 6.716 15 15 0 8.284-6.716 15-15 15-8.284 0-15-6.716-15-15C3 9.716 9.716 3 18 3z"/></mask><filter id="mvl1a" width="58" height="58" x="-11" y="-11" filterUnits="userSpaceOnUse"><feOffset in="SourceGraphic" result="FeOffset1046Out"/><feGaussianBlur in="FeOffset1046Out" result="FeGaussianBlur1047Out" stdDeviation="1.6 1.6"/></filter></defs><g><g><g filter="url(#mvl1a)"><path fill="none" d="M18 3c8.284 0 15 6.716 15 15 0 8.284-6.716 15-15 15-8.284 0-15-6.716-15-15C3 9.716 9.716 3 18 3z" mask="url(&quot;#mvl1b&quot;)"/><path fill="#181818" fill-opacity=".19" d="M18 3c8.284 0 15 6.716 15 15 0 8.284-6.716 15-15 15-8.284 0-15-6.716-15-15C3 9.716 9.716 3 18 3z"/></g><path fill="#fff" d="M18 3c8.284 0 15 6.716 15 15 0 8.284-6.716 15-15 15-8.284 0-15-6.716-15-15C3 9.716 9.716 3 18 3z"/></g><g><path fill="#17b570" d="M11.948 16.804l3.478 3.17 8.53-7.965 3.05 2.732-11.58 10.765-6.43-5.978z"/></g></g></svg>