<svg xmlns="http://www.w3.org/2000/svg" width="36" height="30" viewBox="0 0 36 30"><g><g><path fill="#50bde6" d="M32.31 7.462l.024.98c0 10.008-7.426 21.547-21.006 21.547-4.17 0-8.049-1.254-11.317-3.401.578.067 1.165.103 1.761.103 3.458 0 6.643-1.21 9.169-3.24-3.23-.063-5.955-2.252-6.895-5.26.452.088.913.137 1.39.137.674 0 1.326-.094 1.945-.265-3.376-.699-5.922-3.758-5.922-7.427v-.095c.997.568 2.134.91 3.344.95C2.824 10.137 1.52 7.819 1.52 5.19c0-1.39.362-2.69.998-3.807C6.159 5.964 11.6 8.98 17.735 9.295a7.812 7.812 0 0 1-.191-1.724c0-4.18 3.305-7.572 7.384-7.572 2.124 0 4.04.918 5.387 2.392A14.628 14.628 0 0 0 35.007.553 7.584 7.584 0 0 1 31.76 4.74 14.476 14.476 0 0 0 36 3.547a15.074 15.074 0 0 1-3.69 3.915z"/></g></g></svg>